<svg xmlns="http://www.w3.org/2000/svg" id="Layer_1" data-name="Layer 1" viewBox="0 0 841.89 593.65"><defs><style>.cls-1{fill:#fff}.cls-2{fill:#ee3c26}.cls-3{fill:none}</style></defs><title>logo delhivery</title><rect id="_Rectangle_" width="841.89" height="593.65" class="cls-1" data-name="&lt;Rectangle&gt;"/><g id="_Group_" data-name="&lt;Group&gt;"><g id="_Group_2" data-name="&lt;Group&gt;"><g id="_Group_3" data-name="&lt;Group&gt;"><path id="_Path_" d="M476.34,435.65q-1.45-9-2.89-17.91a173.36,173.36,0,0,0,18.45-26.21c0.71,7.33,1.42,14.65,2.09,21.55,0.09,0.91.19,1.81,0.27,2.73l23.89-48.51a4.51,4.51,0,0,1,4-2.43c7.8,0,14.93,0,23.17,0,0,0,.06,0,0,0.06-1.51,2.7-2.82,5.18-4.25,7.62-11.94,20.41-22.94,39.17-34.84,59.61A9.52,9.52,0,0,1,504,434.9a7.79,7.79,0,0,1-4,1c-8.37-.09-14.91,0-23.68,0" class="cls-2" data-name="&lt;Path&gt;"/></g><path id="_Compound_Path_" d="M591.91,416.46a0,0,0,0,1,.06.05c-0.69,4-1.47,8.26-2,12.09-0.33,2.87-1.71,3.92-4.45,4.57-7.83,1.85-15.71,3.12-23.75,2.53-12.73-.94-23.09-5.92-28.68-18.14-3-6.45-3.06-13.29-1.83-20.16,3-16.64,14.34-28.5,30.78-31.62,8.65-1.64,17.31-1.38,25.52,2.43,9.67,4.48,13.89,12.55,14.7,22.73a48.5,48.5,0,0,1-1.56,16.22,0,0,0,0,1,0,0h-48a0,0,0,0,0,0,0,11.29,11.29,0,0,0,8.14,11.83c5.8,1.95,11.75,1.84,17.65.69C582.85,418.91,587.21,417.63,591.91,416.46Zm-9.16-22.39a0,0,0,0,0,0,0c0.69-6.7-2.64-12.51-8.42-13.46a19.75,19.75,0,0,0-12.26,2.12,18.77,18.77,0,0,0-7.8,10.14c-0.15.51-.24,0.94-0.3,1.24h28.73Z" class="cls-2" data-name="&lt;Compound Path&gt;"/><path id="_Compound_Path_2" d="M328.29,390.95c-0.81-10.18-5-18.25-14.7-22.73-8.22-3.81-16.88-4.08-25.52-2.43-16.44,3.12-27.8,15-30.78,31.62-1.23,6.87-1.12,13.7,1.82,20.16,0.16,0.35.31,0.68,0.48,1,2.84,0.14,5.83.21,9,.19,5.31-.06,10.24-0.39,14.77-0.89l0.71-.08a11.1,11.1,0,0,1-5.37-10.54,0.06,0.06,0,0,1,.06,0h48a0,0,0,0,0,0,0A48.74,48.74,0,0,0,328.29,390.95ZM308.84,394a0,0,0,0,1,0,0H280.07c0.06-.29.15-0.73,0.3-1.24a18.73,18.73,0,0,1,7.8-10.13,19.7,19.7,0,0,1,12.25-2.12C306.21,381.51,309.54,387.33,308.84,394Z" class="cls-2" data-name="&lt;Compound Path&gt;"/><path id="_Path_2" d="M366.71,335.93c-1.63,7.86-3.25,15.63-4.85,23.39L354.1,396.7a214.82,214.82,0,0,1-26.64,11.18c4.88-23.38,9.72-46.63,14.57-69.9a2.63,2.63,0,0,1,2.59-2.1h22A0.05,0.05,0,0,1,366.71,335.93Z" class="cls-2" data-name="&lt;Path&gt;"/><path id="_Path_3" d="M395,335.94c-2.86,13.64-5.64,26.83-8.49,40.36a188.56,188.56,0,0,1-28.16,18.19c0.63-2.94,1.24-5.89,1.87-8.83,3.36-15.93,6.73-31.88,10.13-47.94a2.31,2.31,0,0,1,2.26-1.84h22.35A0,0,0,0,1,395,335.94Z" class="cls-2" data-name="&lt;Path&gt;"/></g><g id="_Group_4" data-name="&lt;Group&gt;"><g id="_Group_5" data-name="&lt;Group&gt;"><path id="_Compound_Path_3" d="M400.44,476h18.32l-1,4.93H406.3l-1.19,5.37H416l-1.08,4.93H404.06l-1.27,5.9h11.91l-1,4.93H394.84Z" data-name="&lt;Compound Path&gt;"/><path id="_Compound_Path_4" d="M443,482.23a12.27,12.27,0,0,0-6.49-1.57c-7,0-9.78,4.93-9.78,9.85,0,4.63,2.95,6.79,7.13,6.79a14.61,14.61,0,0,0,6.61-1.46l-0.75,5.6a25.26,25.26,0,0,1-6.94,1c-8.4,0-13.21-5-13.21-12.13,0-8.66,6.08-14.82,15.86-14.82a25.71,25.71,0,0,1,9.22,1.38Z" data-name="&lt;Compound Path&gt;"/><path id="_Compound_Path_5" d="M455.62,502.45c-8.47,0-11.57-5.26-11.57-10.6,0-9.89,5.19-16.35,15.23-16.35,8.47,0,11.57,5.26,11.57,10.64C470.85,496,465.66,502.45,455.62,502.45Zm3.21-21.79c-5.37,0-7.61,6.23-7.61,10.64,0,3.28,1.23,6,4.85,6,5.37,0,7.61-6.23,7.61-10.6C463.68,483.42,462.45,480.66,458.83,480.66Z" data-name="&lt;Compound Path&gt;"/><path id="_Compound_Path_6" d="M476.94,476h10.9l0.41,17.5h0.07L496.5,476h11.12l-5.52,26h-6.79L500,480.66H500L489.75,502h-6.57l-1-21.35h-0.07L477.62,502h-6.34Z" data-name="&lt;Compound Path&gt;"/><path id="_Compound_Path_7" d="M512.19,476h10.9l0.41,17.5h0.07l8.17-17.5h11.12l-5.52,26h-6.79l4.74-21.35h-0.07L525,502h-6.57l-1-21.35h-0.07L512.87,502h-6.34Z" data-name="&lt;Compound Path&gt;"/><path id="_Compound_Path_8" d="M547.7,476H566l-1,4.93H553.56l-1.19,5.37h10.86l-1.08,4.93H551.32l-1.27,5.9H562l-1,4.93H542.1Z" data-name="&lt;Compound Path&gt;"/><path id="_Compound_Path_9" d="M570.4,476h8.32c5,0,10.93.19,10.93,6.64,0,4.59-3.58,6.19-7.58,6.68v0.08c2.05,0.19,2.72,2.95,3.1,4.63l1.87,8h-6.94l-1.34-6.64c-0.67-3.4-.89-3.66-4-3.66H574L571.9,502h-7ZM575,486.78h2.35c3,0,5.37-.74,5.37-3.21,0-1.87-1.12-2.65-3.21-2.69h-3.32Z" data-name="&lt;Compound Path&gt;"/><path id="_Compound_Path_10" d="M615.13,482.23a12.27,12.27,0,0,0-6.49-1.57c-7,0-9.78,4.93-9.78,9.85,0,4.63,2.95,6.79,7.13,6.79a14.61,14.61,0,0,0,6.61-1.46l-0.75,5.6a25.26,25.26,0,0,1-6.94,1c-8.4,0-13.21-5-13.21-12.13,0-8.66,6.08-14.82,15.86-14.82a25.71,25.71,0,0,1,9.22,1.38Z" data-name="&lt;Compound Path&gt;"/><path id="_Compound_Path_11" d="M620.33,476h18.32l-1,4.93H626.18L625,486.26h10.86l-1.08,4.93H623.95l-1.27,5.9h11.91l-1,4.93H614.73Z" data-name="&lt;Compound Path&gt;"/></g><g id="_Group_6" data-name="&lt;Group&gt;"><path id="_Compound_Path_12" d="M451.64,442.18h18.56l-1,5H457.58l-1.21,5.44h11l-1.1,5h-11l-1.29,6h12.06l-1,5H446Z" data-name="&lt;Compound Path&gt;"/><path id="_Compound_Path_13" d="M474.64,442.18h8.81l5.41,18.3h0.08l3.71-18.3h6.65l-5.6,26.39h-8.77l-5.52-18.26h-0.08l-3.67,18.26H469Z" data-name="&lt;Compound Path&gt;"/><path id="_Compound_Path_14" d="M512.09,442.18h8.85l4.31,26.39h-7.11l-0.72-5.63H507.18L504,468.57H496.4Zm3.52,5.44h-0.08l-5.6,10.32h6.81Z" data-name="&lt;Compound Path&gt;"/><path id="_Compound_Path_15" d="M533.47,442.18h11.72c2.72,0,7.45,1.06,7.45,6,0,3.55-2.76,6.2-6.92,6.69V455c3,0.45,5.1,2.19,5.1,5.1,0,5.6-4.8,8.24-10.85,8.32l-12,.15Zm2.5,21.4h1.89c3.55,0,5.94-1,5.94-3.56,0-2.31-1.66-2.64-4.84-2.64h-1.7Zm2.31-11h2.65c2.95,0,4.69-1.17,4.69-3,0-2.12-1.74-2.46-4.39-2.46h-1.81Z" data-name="&lt;Compound Path&gt;"/><path id="_Compound_Path_16" d="M558.67,442.18h7.15l-4.39,21.17h11l-1.1,5.22H553.18Z" data-name="&lt;Compound Path&gt;"/><path id="_Compound_Path_17" d="M580,442.18h7.11l-5.48,26.39h-7.11Z" data-name="&lt;Compound Path&gt;"/><path id="_Compound_Path_18" d="M592.37,442.18h8.81l5.41,18.3h0.08l3.71-18.3H617l-5.6,26.39h-8.77l-5.52-18.26h-0.08l-3.67,18.26h-6.65Z" data-name="&lt;Compound Path&gt;"/><path id="_Compound_Path_19" d="M642.94,448.38a17.77,17.77,0,0,0-7.64-1.44c-7.07,0-9.91,5-9.91,10,0,4.69,3,6.88,6.58,6.88a9.42,9.42,0,0,0,2.8-.46l1.17-5.22h-4.2l1-5h11.08l-3.14,14.71a38.71,38.71,0,0,1-9.19,1.17c-8.51,0-13.38-5-13.38-12.29,0-8.77,5.26-15,17.51-15a33.22,33.22,0,0,1,8.81,1.29Z" data-name="&lt;Compound Path&gt;"/></g></g><path id="_Path_4" d="M612.57,364.86a3.88,3.88,0,0,0-1.87.34,2.48,2.48,0,0,0-1.09,1.66c-1.79,9.14-3.27,18.16-5.12,27.28-2.82,13.83-5.83,27.62-8.81,41.66a0,0,0,0,0,0,.06h21.09a5.2,5.2,0,0,0,2.73-.57,4.5,4.5,0,0,0,1.57-2.43c1.22-5.28,2-9.36,3.18-14.66,1-4.79,1.89-9.63,3-14.41,0.73-3.17,1.12-4.74,1.36-5.37s3.45-10.86,12.73-13.44c2.4-.67,3.39-1.09,15.13-1.22,3.46,0,6.57,0,9.27,0a0,0,0,0,1,0,0q5.14,22.94,10.34,45.87a13.39,13.39,0,0,1,.15,6.65,12,12,0,0,1-1.26,3,13.89,13.89,0,0,1-12.13,6.58v0H649.52l-3.8,18.28H647c6.25,0,11.58,0,16.87,0,10.69,0.56,19.87-3,26.32-11.8,3.74-5.11,7.1-10.52,10.31-16,11.24-19.11,22.35-38.3,33.5-57.46,2.66-4.57,5.29-9.17,8.15-14.12a0,0,0,0,0,0-.07c-8.4,0-16.26,0-24.11,0-1.45,0-1.79.86-2.29,1.79l-17.5,32.32-5.6,10.34a0,0,0,0,1-.09,0l-6.38-44.25a0,0,0,0,0,0,0h-23c-0.84,0-2,0-3.47,0a49.45,49.45,0,0,0-11.5,1.51c-8.79,2.43-16.56,11.32-17.88,12.9a0,0,0,0,1-.08,0l2.6-14.33" class="cls-2" data-name="&lt;Path&gt;"/><g id="_Group_7" data-name="&lt;Group&gt;"><path id="_Path_5" d="M468.69,355a0,0,0,0,0,0,0" class="cls-1" data-name="&lt;Path&gt;"/><path id="_Path_6" d="M349.41,99.16h0c-16,0-32.58.07-48.53,0-36.91-.19-72.32,0-113.12.17a5.85,5.85,0,0,0-5.69,4.62q-4.31,20.31-8.7,40.66-7.74,36.12-15.44,72.27c23.9-16.92,51.4-35.5,81.67-54.46C279.13,137.6,316.2,116.64,349.41,99.16Z" class="cls-2" data-name="&lt;Path&gt;"/></g><g id="_Group_8" data-name="&lt;Group&gt;"><path id="_Path_7" d="M419.84,213.47l-1-.9c-21-19.68-44.58-23.58-53.58-24.93-31.47-4.75-57.15,6.9-69.57,12.66-42.52,19.65-62.77,54.39-70.32,64.82-8.74,12.09-48.51,88.31-19.64,129.58,10.4,14.87,29.83,22.46,53.12,23.84l0.67,0c5.7,11.49,15.83,16.22,28.2,17.13,8,0.59,15.92-.67,23.75-2.53,2.75-.65,4.12-1.7,4.45-4.58,0.54-3.83,1.33-8.08,2-12.08a0,0,0,0,0-.06-0.06c-4.69,1.17-9.05,2.45-13.49,3.3-5.91,1.15-11.86,1.25-17.65-.7a12.76,12.76,0,0,1-2.78-1.29,200.29,200.29,0,0,0,43.43-9.9q-2.9,13.94-5.82,28a0,0,0,0,0,0,0c7.93,0,15.41,0,22.91,0a2.34,2.34,0,0,0,1.59-1.46c0.75-2.9,1.32-5.85,1.94-8.79q3-14.47,6-28.93c1.41-.71,2.82-1.44,4.21-2.18-2.81,13.39-5.62,26.78-8.46,40.27l-0.24,1.11h5.27c5.49,0,11,0,16.47.06,1.74,0,2.39-.53,2.72-2.2,2.26-11,4.44-22.07,7-33,1.39-6,4.65-11.87,10.32-14.57,1.18-.58,4.93-2.61,9.32-1.66,1.17,0.26,5.07,1,6.42,4.27,0.46,1.08,1.1,2.46.45,7.89a59.86,59.86,0,0,1-1.74,9.05c-1.88,8.2-3.2,15.3-4.8,23.11-0.47,2.25-.86,4.52-1.33,7l0,0.06c8.1,0,15.74,0,23.4-.07a2.58,2.58,0,0,0,1.54-1.74c2.05-10,4.09-19.95,6-29.94,1.26-6.79,2.69-13.55,1.56-20.59-1.56-9.79-7.35-16.72-16.55-18.29-7.84-1.35-15.53,1.14-22.19,5.57l-0.51.36-3.22,2.49-3.36,2.64,0.15-.12-0.1.08,0.44-.36,5.09-4.21a148.1,148.1,0,0,0,12.54-12.08c2.4-2.62,38.54-43,36.62-88.49C440.74,260.78,439.54,232.59,419.84,213.47Z" class="cls-3" data-name="&lt;Path&gt;"/></g><g id="_Group_9" data-name="&lt;Group&gt;"><path id="_Path_8" d="M419.84,213.47l-1-.9c-21-19.68-44.58-23.58-53.58-24.93-31.47-4.75-57.15,6.9-69.57,12.66-42.52,19.65-62.77,54.39-70.32,64.82-8.74,12.09-48.51,88.31-19.64,129.58,10.4,14.87,29.83,22.46,53.12,23.84l0.67,0c5.7,11.49,15.83,16.22,28.2,17.13,8,0.59,15.92-.67,23.75-2.53,2.75-.65,4.12-1.7,4.45-4.58,0.54-3.83,1.33-8.08,2-12.08a0,0,0,0,0-.06-0.06c-4.69,1.17-9.05,2.45-13.49,3.3-5.91,1.15-11.86,1.25-17.65-.7a12.76,12.76,0,0,1-2.78-1.29,200.29,200.29,0,0,0,43.43-9.9q-2.9,13.94-5.82,28a0,0,0,0,0,0,0c7.93,0,15.41,0,22.91,0a2.34,2.34,0,0,0,1.59-1.46c0.75-2.9,1.32-5.85,1.94-8.79q3-14.47,6-28.93c1.41-.71,2.82-1.44,4.21-2.18-2.81,13.39-5.62,26.78-8.46,40.27l-0.24,1.11h5.27c5.49,0,11,0,16.47.06,1.74,0,2.39-.53,2.72-2.2,2.26-11,4.44-22.07,7-33,1.39-6,4.65-11.87,10.32-14.57,1.18-.58,4.93-2.61,9.32-1.66,1.17,0.26,5.07,1,6.42,4.27,0.46,1.08,1.1,2.46.45,7.89a59.86,59.86,0,0,1-1.74,9.05c-1.88,8.2-3.2,15.3-4.8,23.11-0.47,2.25-.86,4.52-1.33,7l0,0.06c8.1,0,15.74,0,23.4-.07a2.58,2.58,0,0,0,1.54-1.74c2.05-10,4.09-19.95,6-29.94,1.26-6.79,2.69-13.55,1.56-20.59-1.56-9.79-7.35-16.72-16.55-18.29-7.73-1.33-15.32,1.08-21.92,5.39-0.35.23-.7,0.48-1,0.74l-3,2.29-3.36,2.64,0.15-.12-0.1.08,0.44-.36,5.09-4.21a148.1,148.1,0,0,0,12.54-12.08c2.4-2.62,38.54-43,36.62-88.49C440.74,260.78,439.54,232.59,419.84,213.47Z" class="cls-3" data-name="&lt;Path&gt;"/><path id="_Path_9" d="M444.38,354.92a0,0,0,0,0,0,.06h24.26a0.05,0.05,0,0,0,0,0l3.66-17.39a0.05,0.05,0,0,0,0-.06" class="cls-3" data-name="&lt;Path&gt;"/></g><path id="_Path_10" d="M392,371.67a148.1,148.1,0,0,0,12.54-12.08c2.4-2.62,38.54-43,36.62-88.49-0.43-10.32-1.63-38.51-21.33-57.63l-1-.9c-21-19.68-44.58-23.58-53.58-24.93-31.47-4.75-57.15,6.9-69.57,12.66-42.52,19.65-62.77,54.39-70.32,64.82-8.74,12.09-48.51,88.31-19.64,129.58,10.4,14.87,29.83,22.46,53.12,23.84l0.67,0c5.7,11.49,15.83,16.22,28.2,17.13,8,0.59,15.92-.67,23.75-2.53,2.75-.65,4.12-1.7,4.45-4.58,0.54-3.83,1.33-8.08,2-12.08a0,0,0,0,0-.06-0.06c-4.69,1.17-9.05,2.45-13.49,3.3-5.91,1.15-11.86,1.25-17.65-.7a12.76,12.76,0,0,1-2.78-1.29,200.29,200.29,0,0,0,43.43-9.9q-2.9,13.94-5.82,28h21.67a4.62,4.62,0,0,0,1.92-.68,3.26,3.26,0,0,0,1.18-1.68c0.75-2.9,1.09-5,1.71-7.88q3-14.47,6-28.93c1.41-.71,2.82-1.44,4.21-2.18-2.81,13.39-5.62,26.78-8.46,40.27l-0.24,1.08h21c1.74,0,3.17-.67,3.51-2.34,2.26-11,4.4-21.86,7-32.81,1.39-6,4.65-11.87,10.32-14.57,1.18-.58,4.93-2.61,9.32-1.66,1.17,0.26,5.07,1,6.42,4.27,0.46,1.08,1.1,2.46.45,7.89a59.86,59.86,0,0,1-1.74,9.05c-1.88,8.2-3.2,15.3-4.8,23.11-0.47,2.25-.86,4.52-1.33,7l0,0.06,20.77,0a5.33,5.33,0,0,0,3.28-.86,5.7,5.7,0,0,0,1.39-3c2.05-10,3.6-17.86,5.49-27.85,1.26-6.79,2.69-13.55,1.56-20.59-1.56-9.79-7.35-16.72-16.55-18.29-7.73-1.33-15.32,1.08-21.92,5.39-0.35.23-.7,0.48-1,0.74l-3,2.29-3.36,2.64,0.15-.12-0.1.08,0.44-.36Z" class="cls-3" data-name="&lt;Path&gt;"/><path id="_Compound_Path_20" d="M513.6,196.87v0a134.9,134.9,0,0,0-12.25-24.74c-11.58-18.33-26.87-32.55-45-43.47-3.45-2.1-7-4.06-10.64-5.91A199,199,0,0,0,422.82,113a256.75,256.75,0,0,0-33.21-9.69,965,965,0,0,0-109.17,45.51,1059.53,1059.53,0,0,0-123.28,71.54h0q-6.66,31.28-13.25,62.57c-0.17.77-.34,1.51-0.49,2.26q-2.38,11.2-4.74,22.4-8.17,38.53-16.34,77-7,33.26-14,66.54c-3,14.55-6.12,29.08-9.25,43.85H271.82A384.44,384.44,0,0,0,342,488.7a267.39,267.39,0,0,0,60-18.36,220.6,220.6,0,0,0,25.33-13.45v0c3.32-2,6.77-4.29,10.32-6.77s6.79-5,9.82-7.41h0a184,184,0,0,0,19.08-17.56v0s2.75-2.68,6.84-7.47c-2.65-16.31-5.29-32.58-8-48.93,0-.06-0.07-0.06-0.08,0l-11.3,55.3c-0.68,3.37-.89,5-1.7,8.38a4.42,4.42,0,0,1-1.22,2.56,5.65,5.65,0,0,1-3.14.79H427.52c0.58-3,1.08-5.89,1.65-8.71q5-24.67,10.06-49.35c0.79-3.83,1.05-5.59,1.94-9.4a5.82,5.82,0,0,1,1.09-2.75,3.69,3.69,0,0,1,2.52-.78c4.07,0,7.69,0,11.37,0h33.15l2.35,24c0.08,0.89.19,1.79,0.25,2.68,1.37-2.4,2.71-4.89,4-7.48,1.3-2.2,2.58-4.51,3.87-6.9a226.22,226.22,0,0,0,23-69.87C530.3,259.52,522.46,218.73,513.6,196.87ZM386.46,376.3l3.35-2.64,3-2.28c0.34-.27.67-0.51,1-0.74,6.61-4.32,14.19-6.72,21.92-5.4,9.2,1.58,15,8.5,16.55,18.29,1.12,7-.3,13.79-1.56,20.59-1.89,10-3.43,17.89-5.48,27.85a5.73,5.73,0,0,1-1.39,3,5.36,5.36,0,0,1-3.28.86H399.79l0,0c0.48-2.5.86-4.78,1.33-7,1.6-7.81,2.92-14.92,4.8-23.11a59.86,59.86,0,0,0,1.74-9.05c0.65-5.44,0-6.82-.45-7.89-1.36-3.22-5.25-4-6.42-4.27-4.39-1-8.14,1.08-9.32,1.66-5.67,2.7-8.93,8.58-10.32,14.57-2.56,11-4.69,21.78-7,32.82-0.34,1.67-1.77,2.36-3.51,2.34h-21l0.23-1.09c2.84-13.49,5.66-26.88,8.46-40.27-1.39.74-2.79,1.47-4.21,2.18q-3,14.48-6,28.93c-0.61,2.93-1,5-1.7,7.89a3.3,3.3,0,0,1-1.18,1.67,4.47,4.47,0,0,1-1.92.68H321.68q2.94-14,5.82-28a200.29,200.29,0,0,1-43.43,9.9,12.76,12.76,0,0,0,2.78,1.29c5.8,1.95,11.74,1.84,17.65.7,4.44-.86,8.8-2.13,13.49-3.3a0,0,0,0,1,.06.06c-0.68,4-1.47,8.25-2,12.08-0.34,2.87-1.7,3.93-4.45,4.58-7.84,1.85-15.71,3.12-23.75,2.53-12.37-.92-22.5-5.65-28.2-17.13l-0.67,0c-23.3-1.38-42.73-9-53.12-23.84C177,353.41,216.73,277.19,225.47,265.1c7.55-10.43,27.8-45.17,70.32-64.82,12.43-5.76,38.1-17.41,69.57-12.66,9,1.36,32.62,5.25,53.58,24.93l1,0.9c19.69,19.13,20.9,47.32,21.33,57.63,1.92,45.53-34.22,85.87-36.62,88.49a145.77,145.77,0,0,1-12.54,12.09l-5.1,4.21m81.78-22.58H444.38l3.16-14.88a3.28,3.28,0,0,1,3.18-2.49l21.65,0Z" class="cls-2" data-name="&lt;Compound Path&gt;"/></g></svg>